<svg width="540" height="1200" viewBox="0 0 540 1200" fill="none" xmlns="http://www.w3.org/2000/svg">
  <defs>
    <linearGradient id="previewA" x1="0" y1="0" x2="540" y2="840" gradientUnits="userSpaceOnUse">
      <stop stop-color="#101820"/>
      <stop offset="0.42" stop-color="#263848"/>
      <stop offset="0.72" stop-color="#161B21"/>
      <stop offset="1" stop-color="#070A0E"/>
    </linearGradient>
    <linearGradient id="bottomA" x1="0" y1="820" x2="0" y2="1200" gradientUnits="userSpaceOnUse">
      <stop stop-color="#10151B" stop-opacity="0.2"/>
      <stop offset="0.2" stop-color="#10151B" stop-opacity="0.78"/>
      <stop offset="1" stop-color="#090B0E"/>
    </linearGradient>
    <filter id="shadowA" x="-20%" y="-20%" width="140%" height="140%">
      <feDropShadow dx="0" dy="8" stdDeviation="12" flood-color="#000000" flood-opacity="0.35"/>
    </filter>
  </defs>
  <rect width="540" height="1200" rx="42" fill="#030507"/>
  <rect x="14" y="14" width="512" height="1172" rx="34" fill="url(#previewA)"/>
  <path d="M70 218C118 158 210 174 247 236C286 302 351 305 420 255C463 224 500 241 526 274V568H14V326C30 290 42 254 70 218Z" fill="#31485B" opacity="0.5"/>
  <path d="M54 584C110 536 164 553 211 602C266 660 327 666 387 612C436 568 485 575 526 617V850H14V642C25 619 37 600 54 584Z" fill="#1A222A" opacity="0.72"/>
  <rect x="14" y="14" width="512" height="176" rx="34" fill="#030507" opacity="0.38"/>
  <text x="40" y="72" fill="#FFFFFF" font-family="Inter, Arial, sans-serif" font-size="26" font-weight="700">OpenCamera</text>
  <text x="40" y="104" fill="#A9C2D6" font-family="Inter, Arial, sans-serif" font-size="15">Photo · Preview ready</text>
  <rect x="326" y="48" width="54" height="34" rx="17" fill="#162332" stroke="#5D778C"/>
  <text x="342" y="70" fill="#EAF3FA" font-family="Inter, Arial, sans-serif" font-size="12" font-weight="700">Lab</text>
  <rect x="388" y="48" width="62" height="34" rx="17" fill="#162332" stroke="#5D778C"/>
  <text x="404" y="70" fill="#EAF3FA" font-family="Inter, Arial, sans-serif" font-size="12" font-weight="700">Look</text>
  <rect x="458" y="48" width="44" height="34" rx="12" fill="#111A22" stroke="#58D8F7"/>
  <text x="468" y="70" fill="#7FE4FF" font-family="Inter, Arial, sans-serif" font-size="12" font-weight="800">DEV</text>
  <rect x="154" y="720" width="232" height="44" rx="22" fill="#090D11" fill-opacity="0.72" stroke="#FFFFFF" stroke-opacity="0.1"/>
  <text x="181" y="748" fill="#C9D4E0" font-family="Inter, Arial, sans-serif" font-size="15" font-weight="600">0.6</text>
  <rect x="238" y="728" width="54" height="28" rx="14" fill="#F5F7FA"/>
  <text x="255" y="748" fill="#0E1218" font-family="Inter, Arial, sans-serif" font-size="15" font-weight="800">1x</text>
  <text x="321" y="748" fill="#C9D4E0" font-family="Inter, Arial, sans-serif" font-size="15" font-weight="600">2x</text>
  <text x="362" y="748" fill="#C9D4E0" font-family="Inter, Arial, sans-serif" font-size="15" font-weight="600">5x</text>
  <rect x="14" y="815" width="512" height="371" rx="34" fill="url(#bottomA)"/>
  <g font-family="Inter, Arial, sans-serif">
    <text x="56" y="850" fill="#E9EEF4" font-size="21" font-weight="800">Photo</text>
    <text x="148" y="850" fill="#C7D0D9" font-size="20" opacity="0.75">Doc</text>
    <text x="220" y="850" fill="#C7D0D9" font-size="20" opacity="0.75">Human</text>
    <text x="324" y="850" fill="#C7D0D9" font-size="20" opacity="0.75">Port</text>
    <text x="418" y="850" fill="#C7D0D9" font-size="20" opacity="0.75">Video</text>
    <rect x="36" y="822" width="92" height="44" rx="22" fill="#FFFFFF" fill-opacity="0.12"/>
  </g>
  <rect x="40" y="910" width="68" height="68" rx="12" fill="#243140" stroke="#516072"/>
  <path d="M48 958L67 936L83 950L96 928L108 948V970H48V958Z" fill="#83A7C3" opacity="0.75"/>
  <rect x="204" y="884" width="132" height="132" rx="66" fill="#F7F8FA" filter="url(#shadowA)"/>
  <rect x="223" y="903" width="94" height="94" rx="47" fill="none" stroke="#161A20" stroke-width="3" opacity="0.14"/>
  <circle cx="270" cy="950" r="40" fill="#F7F8FA" stroke="#D7DBE0" stroke-width="2"/>
  <rect x="390" y="914" width="94" height="40" rx="20" fill="#151C23" stroke="#FFFFFF" stroke-opacity="0.08"/>
  <text x="414" y="939" fill="#DDE6F0" font-family="Inter, Arial, sans-serif" font-size="15" font-weight="700">Lens</text>
  <rect x="136" y="1040" width="68" height="34" rx="17" fill="#151C23" stroke="#FFFFFF" stroke-opacity="0.08"/>
  <text x="156" y="1062" fill="#DDE6F0" font-family="Inter, Arial, sans-serif" font-size="13">Flash</text>
  <rect x="218" y="1040" width="70" height="34" rx="17" fill="#151C23" stroke="#FFFFFF" stroke-opacity="0.08"/>
  <text x="239" y="1062" fill="#DDE6F0" font-family="Inter, Arial, sans-serif" font-size="13">Ratio</text>
  <rect x="302" y="1040" width="62" height="34" rx="17" fill="#151C23" stroke="#FFFFFF" stroke-opacity="0.08"/>
  <text x="321" y="1062" fill="#DDE6F0" font-family="Inter, Arial, sans-serif" font-size="13">Grid</text>
  <text x="40" y="1126" fill="#8AA0B2" font-family="Inter, Arial, sans-serif" font-size="13">A Cockpit · preview first · fixed controls · DEV as tool</text>
</svg>
