<svg width="540" height="1200" viewBox="0 0 540 1200" fill="none" xmlns="http://www.w3.org/2000/svg">
  <defs>
    <linearGradient id="previewC" x1="0" y1="0" x2="540" y2="900" gradientUnits="userSpaceOnUse">
      <stop stop-color="#0A0B0D"/>
      <stop offset="0.38" stop-color="#30353B"/>
      <stop offset="0.68" stop-color="#181A1D"/>
      <stop offset="1" stop-color="#040506"/>
    </linearGradient>
    <linearGradient id="dockC" x1="0" y1="810" x2="0" y2="1200" gradientUnits="userSpaceOnUse">
      <stop stop-color="#000000" stop-opacity="0"/>
      <stop offset="0.28" stop-color="#000000" stop-opacity="0.62"/>
      <stop offset="1" stop-color="#000000"/>
    </linearGradient>
    <filter id="buttonC" x="-20%" y="-20%" width="140%" height="140%">
      <feDropShadow dx="0" dy="6" stdDeviation="10" flood-color="#000000" flood-opacity="0.32"/>
    </filter>
  </defs>
  <rect width="540" height="1200" rx="42" fill="#000000"/>
  <rect x="14" y="14" width="512" height="1172" rx="34" fill="url(#previewC)"/>
  <path d="M14 504C84 445 156 471 224 515C303 566 389 540 526 455V884H14V504Z" fill="#0C0D0F" opacity="0.44"/>
  <rect x="14" y="14" width="512" height="150" rx="34" fill="#000000" opacity="0.3"/>
  <text x="38" y="72" fill="#FFFFFF" font-family="Inter, Arial, sans-serif" font-size="20" font-weight="700">Photo</text>
  <circle cx="362" cy="64" r="19" fill="#111315" stroke="#FFFFFF" stroke-opacity="0.12"/>
  <text x="352" y="69" fill="#F2F2F2" font-family="Inter, Arial, sans-serif" font-size="11" font-weight="700">Lab</text>
  <circle cx="418" cy="64" r="19" fill="#111315" stroke="#FFFFFF" stroke-opacity="0.12"/>
  <text x="408" y="69" fill="#F2F2F2" font-family="Inter, Arial, sans-serif" font-size="11" font-weight="700">Fx</text>
  <rect x="461" y="45" width="42" height="38" rx="12" fill="#0D1114" stroke="#73DDF7" stroke-opacity="0.75"/>
  <text x="470" y="68" fill="#83E6FF" font-family="Inter, Arial, sans-serif" font-size="11" font-weight="900">DEV</text>
  <rect x="211" y="704" width="118" height="42" rx="21" fill="#050505" fill-opacity="0.66"/>
  <text x="243" y="731" fill="#FFFFFF" font-family="Inter, Arial, sans-serif" font-size="16" font-weight="800">1x</text>
  <text x="170" y="731" fill="#D6D6D6" font-family="Inter, Arial, sans-serif" font-size="14" opacity="0.7">0.6</text>
  <text x="348" y="731" fill="#D6D6D6" font-family="Inter, Arial, sans-serif" font-size="14" opacity="0.7">2</text>
  <rect x="14" y="792" width="512" height="394" rx="34" fill="url(#dockC)"/>
  <g font-family="Inter, Arial, sans-serif">
    <text x="92" y="850" fill="#EDEDED" font-size="18" opacity="0.64">Doc</text>
    <text x="177" y="850" fill="#FFFFFF" font-size="19" font-weight="800">Photo</text>
    <text x="285" y="850" fill="#EDEDED" font-size="18" opacity="0.64">Portrait</text>
    <text x="411" y="850" fill="#EDEDED" font-size="18" opacity="0.64">Video</text>
  </g>
  <rect x="50" y="950" width="62" height="62" rx="14" fill="#1B1C1F" stroke="#FFFFFF" stroke-opacity="0.08"/>
  <path d="M59 1000L78 976L92 990L103 972L112 990V1004H59V1000Z" fill="#B8C3CF" opacity="0.8"/>
  <rect x="207" y="908" width="126" height="126" rx="63" fill="#F9F9FA" filter="url(#buttonC)"/>
  <circle cx="270" cy="971" r="47" fill="#F9F9FA" stroke="#D3D4D6" stroke-width="2"/>
  <circle cx="448" cy="981" r="30" fill="#161719" stroke="#FFFFFF" stroke-opacity="0.08"/>
  <path d="M439 982C439 973 446 966 455 966C460 966 464 968 467 971M467 971V962M467 971H458M457 996C448 996 441 989 441 980C441 975 443 971 446 968M446 968V977M446 968H455" stroke="#F2F2F2" stroke-width="2" stroke-linecap="round" stroke-linejoin="round"/>
  <rect x="164" y="1070" width="54" height="32" rx="16" fill="#0E0F11" stroke="#FFFFFF" stroke-opacity="0.08"/>
  <text x="181" y="1091" fill="#E8E8E8" font-family="Inter, Arial, sans-serif" font-size="12">Off</text>
  <rect x="236" y="1070" width="66" height="32" rx="16" fill="#0E0F11" stroke="#FFFFFF" stroke-opacity="0.08"/>
  <text x="255" y="1091" fill="#E8E8E8" font-family="Inter, Arial, sans-serif" font-size="12">4:3</text>
  <rect x="320" y="1070" width="56" height="32" rx="16" fill="#0E0F11" stroke="#FFFFFF" stroke-opacity="0.08"/>
  <text x="337" y="1091" fill="#E8E8E8" font-family="Inter, Arial, sans-serif" font-size="12">3s</text>
  <text x="40" y="1126" fill="#8D8D8D" font-family="Inter, Arial, sans-serif" font-size="13">Apple Minimal · quiet hierarchy · least text · strong preview</text>
</svg>
