<svg width="540" height="1200" viewBox="0 0 540 1200" fill="none" xmlns="http://www.w3.org/2000/svg">
  <defs>
    <linearGradient id="previewB" x1="0" y1="0" x2="540" y2="840" gradientUnits="userSpaceOnUse">
      <stop stop-color="#0B1014"/>
      <stop offset="0.32" stop-color="#26392F"/>
      <stop offset="0.7" stop-color="#1F2D35"/>
      <stop offset="1" stop-color="#07090B"/>
    </linearGradient>
    <linearGradient id="dockB" x1="0" y1="790" x2="0" y2="1200" gradientUnits="userSpaceOnUse">
      <stop stop-color="#151D22" stop-opacity="0.18"/>
      <stop offset="0.22" stop-color="#12191D" stop-opacity="0.88"/>
      <stop offset="1" stop-color="#080B0D"/>
    </linearGradient>
    <filter id="softB" x="-20%" y="-20%" width="140%" height="140%">
      <feDropShadow dx="0" dy="10" stdDeviation="14" flood-color="#000000" flood-opacity="0.42"/>
    </filter>
  </defs>
  <rect width="540" height="1200" rx="42" fill="#020405"/>
  <rect x="14" y="14" width="512" height="1172" rx="34" fill="url(#previewB)"/>
  <circle cx="430" cy="210" r="116" fill="#406B5A" opacity="0.25"/>
  <path d="M20 540C112 470 182 515 252 568C317 617 401 614 526 514V820H14V560L20 540Z" fill="#0D1215" opacity="0.48"/>
  <rect x="32" y="54" width="78" height="36" rx="18" fill="#0F171B" fill-opacity="0.7" stroke="#4F675D"/>
  <text x="52" y="77" fill="#FFFFFF" font-family="Inter, Arial, sans-serif" font-size="14" font-weight="800">Photo</text>
  <rect x="288" y="54" width="48" height="36" rx="18" fill="#101A1F" stroke="#6C8478"/>
  <text x="303" y="77" fill="#EAF4EF" font-family="Inter, Arial, sans-serif" font-size="13" font-weight="700">Lab</text>
  <rect x="346" y="54" width="58" height="36" rx="18" fill="#101A1F" stroke="#6C8478"/>
  <text x="362" y="77" fill="#EAF4EF" font-family="Inter, Arial, sans-serif" font-size="13" font-weight="700">Look</text>
  <rect x="416" y="54" width="54" height="36" rx="18" fill="#0A1A18" stroke="#52E1B1"/>
  <text x="429" y="77" fill="#73F3C3" font-family="Inter, Arial, sans-serif" font-size="13" font-weight="900">DEV</text>
  <rect x="72" y="675" width="396" height="54" rx="27" fill="#060A0C" fill-opacity="0.72" stroke="#FFFFFF" stroke-opacity="0.1"/>
  <text x="105" y="708" fill="#D8E4DD" font-family="Inter, Arial, sans-serif" font-size="16" font-weight="700">0.6</text>
  <rect x="188" y="685" width="66" height="34" rx="17" fill="#76F0BE"/>
  <text x="209" y="708" fill="#05100C" font-family="Inter, Arial, sans-serif" font-size="16" font-weight="900">1x</text>
  <text x="310" y="708" fill="#D8E4DD" font-family="Inter, Arial, sans-serif" font-size="16" font-weight="700">2x</text>
  <text x="405" y="708" fill="#D8E4DD" font-family="Inter, Arial, sans-serif" font-size="16" font-weight="700">5x</text>
  <rect x="14" y="775" width="512" height="411" rx="34" fill="url(#dockB)"/>
  <g font-family="Inter, Arial, sans-serif">
    <text x="43" y="822" fill="#DDEBE6" font-size="19" opacity="0.7">Doc</text>
    <text x="112" y="822" fill="#FFFFFF" font-size="21" font-weight="900">Photo</text>
    <text x="213" y="822" fill="#DDEBE6" font-size="19" opacity="0.72">Human</text>
    <text x="324" y="822" fill="#DDEBE6" font-size="19" opacity="0.72">Port</text>
    <text x="416" y="822" fill="#DDEBE6" font-size="19" opacity="0.72">Pro</text>
    <rect x="96" y="790" width="116" height="48" rx="24" fill="#FFFFFF" fill-opacity="0.11"/>
  </g>
  <rect x="54" y="874" width="82" height="38" rx="19" fill="#151F24" stroke="#FFFFFF" stroke-opacity="0.08"/>
  <text x="78" y="899" fill="#DDEBE6" font-family="Inter, Arial, sans-serif" font-size="14" font-weight="700">Flash</text>
  <rect x="151" y="874" width="82" height="38" rx="19" fill="#151F24" stroke="#FFFFFF" stroke-opacity="0.08"/>
  <text x="176" y="899" fill="#DDEBE6" font-family="Inter, Arial, sans-serif" font-size="14" font-weight="700">Ratio</text>
  <rect x="249" y="874" width="70" height="38" rx="19" fill="#151F24" stroke="#FFFFFF" stroke-opacity="0.08"/>
  <text x="273" y="899" fill="#DDEBE6" font-family="Inter, Arial, sans-serif" font-size="14" font-weight="700">Live</text>
  <rect x="336" y="874" width="84" height="38" rx="19" fill="#151F24" stroke="#FFFFFF" stroke-opacity="0.08"/>
  <text x="360" y="899" fill="#DDEBE6" font-family="Inter, Arial, sans-serif" font-size="14" font-weight="700">Timer</text>
  <rect x="46" y="960" width="72" height="72" rx="18" fill="#253A38" stroke="#6C8478"/>
  <path d="M55 1015L75 990L91 1006L107 984L118 1004V1024H55V1015Z" fill="#8ECDBB" opacity="0.8"/>
  <rect x="191" y="914" width="158" height="158" rx="79" fill="#F7F9FA" filter="url(#softB)"/>
  <circle cx="270" cy="993" r="50" fill="#F7F9FA" stroke="#C8D0D3" stroke-width="3"/>
  <rect x="390" y="978" width="90" height="48" rx="24" fill="#162026" stroke="#FFFFFF" stroke-opacity="0.09"/>
  <text x="415" y="1008" fill="#E7F0ED" font-family="Inter, Arial, sans-serif" font-size="16" font-weight="800">Flip</text>
  <text x="40" y="1126" fill="#90A9A0" font-family="Inter, Arial, sans-serif" font-size="13">vivo / OPPO Efficiency · single-hand quick toggles</text>
</svg>
