<svg xmlns="http://www.w3.org/2000/svg" width="390" height="844" viewBox="0 0 390 844" role="img" aria-labelledby="title desc">
  <title id="title">OpenCamera Flagship Side Rail + Palette Reference</title>
  <desc id="desc">A phone camera UI mockup with a full preview, right side rail controls, bottom capture deck, and palette panel.</desc>
  <defs>
    <linearGradient id="preview" x1="0" y1="0" x2="1" y2="1">
      <stop offset="0" stop-color="#1C2731"/>
      <stop offset="0.38" stop-color="#283B44"/>
      <stop offset="0.72" stop-color="#435246"/>
      <stop offset="1" stop-color="#101418"/>
    </linearGradient>
    <linearGradient id="sky" x1="0" y1="0" x2="0" y2="1">
      <stop offset="0" stop-color="#8CBAC5" stop-opacity="0.7"/>
      <stop offset="1" stop-color="#1D2B32" stop-opacity="0"/>
    </linearGradient>
    <linearGradient id="bottomGlass" x1="0" y1="0" x2="0" y2="1">
      <stop offset="0" stop-color="#121820" stop-opacity="0.24"/>
      <stop offset="1" stop-color="#06080B" stop-opacity="0.92"/>
    </linearGradient>
    <linearGradient id="palette" x1="0" y1="0" x2="1" y2="0">
      <stop offset="0" stop-color="#D2C1A7"/>
      <stop offset="0.33" stop-color="#62B7AD"/>
      <stop offset="0.66" stop-color="#7E8CCB"/>
      <stop offset="1" stop-color="#E1805F"/>
    </linearGradient>
    <filter id="softShadow" x="-20%" y="-20%" width="140%" height="140%">
      <feDropShadow dx="0" dy="8" stdDeviation="10" flood-color="#000000" flood-opacity="0.35"/>
    </filter>
  </defs>

  <rect width="390" height="844" rx="34" fill="#05070A"/>
  <rect x="8" y="8" width="374" height="828" rx="30" fill="url(#preview)"/>
  <rect x="8" y="8" width="374" height="300" rx="30" fill="url(#sky)"/>

  <path d="M8 520 C72 470 114 492 154 430 C191 373 233 402 268 344 C306 280 338 310 382 250 L382 836 L8 836 Z" fill="#111A18" opacity="0.72"/>
  <path d="M8 620 C70 586 120 608 168 560 C220 508 266 548 326 492 C348 472 365 458 382 448 L382 836 L8 836 Z" fill="#080B0E" opacity="0.72"/>

  <rect x="0" y="0" width="390" height="152" fill="#000000" opacity="0.28"/>
  <rect x="0" y="626" width="390" height="218" fill="url(#bottomGlass)"/>

  <g font-family="Inter, Arial, sans-serif">
    <text x="24" y="58" fill="#FFFFFF" font-size="15" font-weight="700">Photo</text>
    <rect x="74" y="39" width="74" height="28" rx="14" fill="#0F171F" opacity="0.58"/>
    <text x="92" y="58" fill="#CFE6EE" font-size="12">Ready</text>
    <circle cx="342" cy="52" r="17" fill="#101820" opacity="0.62"/>
    <path d="M335 52 h14 M342 45 v14" stroke="#EAF4F6" stroke-width="2" stroke-linecap="round"/>
  </g>

  <g filter="url(#softShadow)">
    <rect x="320" y="152" width="48" height="366" rx="24" fill="#071014" opacity="0.68"/>
    <circle cx="344" cy="184" r="18" fill="#1ADBC7" opacity="0.94"/>
    <text x="344" y="189" text-anchor="middle" fill="#041010" font-family="Inter, Arial, sans-serif" font-size="12" font-weight="800">1x</text>
    <circle cx="344" cy="232" r="18" fill="#FFFFFF" opacity="0.12"/>
    <text x="344" y="237" text-anchor="middle" fill="#EAF4F6" font-family="Inter, Arial, sans-serif" font-size="11">2x</text>
    <circle cx="344" cy="280" r="18" fill="#FFFFFF" opacity="0.12"/>
    <text x="344" y="285" text-anchor="middle" fill="#EAF4F6" font-family="Inter, Arial, sans-serif" font-size="11">5x</text>
    <circle cx="344" cy="340" r="18" fill="#FFFFFF" opacity="0.14"/>
    <rect x="334" y="330" width="20" height="20" rx="6" fill="url(#palette)"/>
    <circle cx="344" cy="392" r="18" fill="#FFFFFF" opacity="0.12"/>
    <text x="344" y="397" text-anchor="middle" fill="#EAF4F6" font-family="Inter, Arial, sans-serif" font-size="10">4:3</text>
    <circle cx="344" cy="444" r="18" fill="#FFFFFF" opacity="0.12"/>
    <path d="M339 452 l5-16 l5 16 h-6 l2-7" fill="none" stroke="#EAF4F6" stroke-width="2" stroke-linejoin="round"/>
    <rect x="330" y="480" width="28" height="18" rx="9" fill="#102028" stroke="#1ADBC7" stroke-opacity="0.55"/>
    <text x="344" y="493" text-anchor="middle" fill="#7CF7EC" font-family="Inter, Arial, sans-serif" font-size="9" font-weight="700">DEV</text>
  </g>

  <g filter="url(#softShadow)">
    <rect x="22" y="528" width="284" height="94" rx="24" fill="#071014" opacity="0.74"/>
    <text x="42" y="556" fill="#FFFFFF" font-family="Inter, Arial, sans-serif" font-size="14" font-weight="700">Palette</text>
    <text x="104" y="556" fill="#AEC2C8" font-family="Inter, Arial, sans-serif" font-size="11">Natural warm</text>
    <rect x="42" y="576" width="42" height="26" rx="13" fill="#E7D7BC"/>
    <rect x="92" y="576" width="42" height="26" rx="13" fill="#44B6A6"/>
    <rect x="142" y="576" width="42" height="26" rx="13" fill="#6675B8"/>
    <rect x="192" y="576" width="42" height="26" rx="13" fill="#D1795D"/>
    <rect x="244" y="586" width="42" height="6" rx="3" fill="#FFFFFF" opacity="0.3"/>
    <circle cx="266" cy="589" r="7" fill="#1ADBC7"/>
  </g>

  <g font-family="Inter, Arial, sans-serif">
    <text x="42" y="672" fill="#AAB8BD" font-size="12">Doc</text>
    <text x="93" y="672" fill="#FFFFFF" font-size="13" font-weight="800">Photo</text>
    <text x="156" y="672" fill="#AAB8BD" font-size="12">Human</text>
    <text x="231" y="672" fill="#AAB8BD" font-size="12">Pro</text>
    <text x="282" y="672" fill="#AAB8BD" font-size="12">Video</text>
    <rect x="91" y="681" width="42" height="3" rx="2" fill="#1ADBC7"/>
  </g>

  <g filter="url(#softShadow)">
    <rect x="32" y="714" width="52" height="52" rx="16" fill="#293934"/>
    <rect x="38" y="720" width="40" height="40" rx="12" fill="#C9D6C8" opacity="0.72"/>
    <circle cx="195" cy="740" r="38" fill="#FFFFFF"/>
    <circle cx="195" cy="740" r="29" fill="none" stroke="#101418" stroke-width="3" opacity="0.82"/>
    <circle cx="312" cy="740" r="24" fill="#FFFFFF" opacity="0.14"/>
    <path d="M304 737 c6-9 20-7 23 4 M320 746 c-6 9-20 7-23-4" fill="none" stroke="#F5FAFA" stroke-width="2" stroke-linecap="round"/>
  </g>

  <rect x="150" y="797" width="90" height="5" rx="3" fill="#FFFFFF" opacity="0.48"/>
</svg>
