<svg xmlns="http://www.w3.org/2000/svg" width="980" height="720" viewBox="0 0 980 720">
  <defs>
    <linearGradient id="previewC" x1="0" y1="0" x2="1" y2="1">
      <stop offset="0" stop-color="#26323A"/>
      <stop offset="0.55" stop-color="#44554D"/>
      <stop offset="1" stop-color="#06080B"/>
    </linearGradient>
    <linearGradient id="bottomC" x1="0" y1="0" x2="0" y2="1">
      <stop offset="0" stop-color="#0B1116" stop-opacity="0.04"/>
      <stop offset="1" stop-color="#05070A" stop-opacity="0.9"/>
    </linearGradient>
    <filter id="shadowC" x="-20%" y="-20%" width="140%" height="140%">
      <feDropShadow dx="0" dy="10" stdDeviation="12" flood-color="#000" flood-opacity="0.32"/>
    </filter>
  </defs>
  <rect width="980" height="720" fill="#101417"/>
  <text x="70" y="54" fill="#F5FAFA" font-family="Inter, Arial" font-size="24" font-weight="800">C. Apple-Clean Panel</text>
  <text x="70" y="82" fill="#AFC2C8" font-family="Inter, Arial" font-size="14">Initial main screen</text>
  <text x="550" y="82" fill="#AFC2C8" font-family="Inter, Arial" font-size="14">Panel open</text>

  <g transform="translate(70 105)">
    <rect width="320" height="570" rx="34" fill="#05070A"/>
    <rect x="8" y="8" width="304" height="554" rx="28" fill="url(#previewC)"/>
    <path d="M8 360 C70 312 118 336 170 286 C218 240 258 260 312 215 L312 562 L8 562 Z" fill="#070C0E" opacity="0.62"/>
    <rect x="8" y="420" width="304" height="142" rx="28" fill="url(#bottomC)"/>
    <text x="28" y="48" fill="#FFF" font-family="Inter, Arial" font-size="15" font-weight="800">Photo</text>
    <circle cx="272" cy="43" r="17" fill="#0B151B" opacity="0.65"/>
    <text x="272" y="48" text-anchor="middle" fill="#FFF" font-family="Inter, Arial" font-size="18">⋯</text>
    <g font-family="Inter, Arial" font-size="13" font-weight="800">
      <text x="103" y="451" fill="#FFF">Photo</text>
      <text x="172" y="451" fill="#AAB9BE">Video</text>
      <rect x="101" y="460" width="42" height="3" rx="2" fill="#FFF"/>
    </g>
    <rect x="30" y="505" width="44" height="44" rx="14" fill="#CED8CC" opacity="0.7"/>
    <circle cx="160" cy="527" r="34" fill="#FFF"/>
    <circle cx="160" cy="527" r="25" fill="none" stroke="#11181C" stroke-width="3"/>
    <circle cx="272" cy="527" r="22" fill="#FFF" opacity="0.14"/>
  </g>

  <g transform="translate(550 105)">
    <rect width="320" height="570" rx="34" fill="#05070A"/>
    <rect x="8" y="8" width="304" height="554" rx="28" fill="url(#previewC)"/>
    <path d="M8 360 C70 312 118 336 170 286 C218 240 258 260 312 215 L312 562 L8 562 Z" fill="#070C0E" opacity="0.62"/>
    <rect x="8" y="420" width="304" height="142" rx="28" fill="url(#bottomC)"/>
    <text x="28" y="48" fill="#FFF" font-family="Inter, Arial" font-size="15" font-weight="800">Photo</text>
    <g filter="url(#shadowC)" font-family="Inter, Arial">
      <rect x="34" y="82" width="252" height="42" rx="21" fill="#071014" opacity="0.72"/>
      <text x="62" y="108" fill="#FFF" font-size="11" font-weight="800">Flash</text>
      <text x="124" y="108" fill="#FFF" font-size="11" font-weight="800">Ratio</text>
      <text x="186" y="108" fill="#FFF" font-size="11" font-weight="800">Timer</text>
      <text x="244" y="108" fill="#7EF3EA" font-size="11" font-weight="800">DEV</text>
      <rect x="40" y="374" width="240" height="48" rx="24" fill="#071014" opacity="0.72"/>
      <text x="62" y="404" fill="#FFF" font-size="12" font-weight="800">Natural</text>
      <text x="126" y="404" fill="#AFC2C8" font-size="12">Vivid</text>
      <text x="176" y="404" fill="#AFC2C8" font-size="12">Film</text>
      <text x="222" y="404" fill="#AFC2C8" font-size="12">Mono</text>
    </g>
    <g font-family="Inter, Arial" font-size="13" font-weight="800">
      <text x="103" y="451" fill="#FFF">Photo</text>
      <text x="172" y="451" fill="#AAB9BE">Video</text>
      <rect x="101" y="460" width="42" height="3" rx="2" fill="#FFF"/>
    </g>
    <rect x="30" y="505" width="44" height="44" rx="14" fill="#CED8CC" opacity="0.7"/>
    <circle cx="160" cy="527" r="34" fill="#FFF"/>
    <circle cx="160" cy="527" r="25" fill="none" stroke="#11181C" stroke-width="3"/>
    <circle cx="272" cy="527" r="22" fill="#FFF" opacity="0.14"/>
  </g>
</svg>
