<svg xmlns="http://www.w3.org/2000/svg" width="980" height="720" viewBox="0 0 980 720">
  <defs>
    <linearGradient id="previewD" x1="0" y1="0" x2="1" y2="1">
      <stop offset="0" stop-color="#27323E"/>
      <stop offset="0.42" stop-color="#5A604B"/>
      <stop offset="1" stop-color="#08090C"/>
    </linearGradient>
    <linearGradient id="paletteD" x1="0" y1="0" x2="1" y2="1">
      <stop offset="0" stop-color="#E7C7A2"/>
      <stop offset="0.35" stop-color="#58BBA8"/>
      <stop offset="0.7" stop-color="#6876C8"/>
      <stop offset="1" stop-color="#DF7459"/>
    </linearGradient>
    <linearGradient id="bottomD" x1="0" y1="0" x2="0" y2="1">
      <stop offset="0" stop-color="#0A1218" stop-opacity="0.12"/>
      <stop offset="1" stop-color="#05070A" stop-opacity="0.93"/>
    </linearGradient>
    <filter id="shadowD" x="-20%" y="-20%" width="140%" height="140%">
      <feDropShadow dx="0" dy="10" stdDeviation="12" flood-color="#000" flood-opacity="0.35"/>
    </filter>
  </defs>
  <rect width="980" height="720" fill="#101417"/>
  <text x="70" y="54" fill="#F5FAFA" font-family="Inter, Arial" font-size="24" font-weight="800">D. Palette First</text>
  <text x="70" y="82" fill="#AFC2C8" font-family="Inter, Arial" font-size="14">Initial main screen</text>
  <text x="550" y="82" fill="#AFC2C8" font-family="Inter, Arial" font-size="14">Creative palette open</text>

  <g transform="translate(70 105)">
    <rect width="320" height="570" rx="34" fill="#05070A"/>
    <rect x="8" y="8" width="304" height="554" rx="28" fill="url(#previewD)"/>
    <path d="M8 372 C72 315 120 343 170 288 C216 237 256 266 312 208 L312 562 L8 562 Z" fill="#071010" opacity="0.6"/>
    <rect x="8" y="420" width="304" height="142" rx="28" fill="url(#bottomD)"/>
    <text x="28" y="48" fill="#FFF" font-family="Inter, Arial" font-size="15" font-weight="800">Photo</text>
    <circle cx="272" cy="43" r="17" fill="#0B151B" opacity="0.75"/>
    <path d="M264 43 h16 M272 35 v16" stroke="#F4FAFA" stroke-width="2" stroke-linecap="round"/>
    <g filter="url(#shadowD)">
      <rect x="183" y="250" width="102" height="42" rx="21" fill="#071014" opacity="0.78"/>
      <circle cx="206" cy="271" r="15" fill="url(#paletteD)"/>
      <text x="228" y="276" fill="#FFF" font-family="Inter, Arial" font-size="12" font-weight="800">Palette</text>
      <rect x="217" y="305" width="50" height="28" rx="14" fill="#071014" opacity="0.74"/>
      <text x="242" y="324" text-anchor="middle" fill="#FFF" font-family="Inter, Arial" font-size="12" font-weight="800">1x</text>
    </g>
    <text x="42" y="468" fill="#AAB9BE" font-family="Inter, Arial" font-size="12">Doc</text>
    <text x="92" y="468" fill="#FFF" font-family="Inter, Arial" font-size="13" font-weight="800">Photo</text>
    <text x="154" y="468" fill="#AAB9BE" font-family="Inter, Arial" font-size="12">Human</text>
    <text x="226" y="468" fill="#AAB9BE" font-family="Inter, Arial" font-size="12">Video</text>
    <rect x="91" y="477" width="42" height="3" rx="2" fill="#E4BE88"/>
    <rect x="30" y="505" width="44" height="44" rx="14" fill="#CED8CC" opacity="0.7"/>
    <circle cx="160" cy="527" r="34" fill="#FFF"/>
    <circle cx="160" cy="527" r="25" fill="none" stroke="#11181C" stroke-width="3"/>
    <circle cx="272" cy="527" r="22" fill="#FFF" opacity="0.14"/>
  </g>

  <g transform="translate(550 105)">
    <rect width="320" height="570" rx="34" fill="#05070A"/>
    <rect x="8" y="8" width="304" height="554" rx="28" fill="url(#previewD)"/>
    <path d="M8 372 C72 315 120 343 170 288 C216 237 256 266 312 208 L312 562 L8 562 Z" fill="#071010" opacity="0.6"/>
    <rect x="8" y="420" width="304" height="142" rx="28" fill="url(#bottomD)"/>
    <text x="28" y="48" fill="#FFF" font-family="Inter, Arial" font-size="15" font-weight="800">Photo</text>
    <g filter="url(#shadowD)">
      <rect x="34" y="208" width="252" height="210" rx="26" fill="#071014" opacity="0.84"/>
      <text x="58" y="242" fill="#FFF" font-family="Inter, Arial" font-size="16" font-weight="800">Palette Studio</text>
      <rect x="58" y="260" width="204" height="48" rx="18" fill="url(#paletteD)" opacity="0.95"/>
      <text x="58" y="336" fill="#FFF" font-family="Inter, Arial" font-size="12" font-weight="800">Warmth</text>
      <rect x="124" y="331" width="118" height="5" rx="3" fill="#FFF" opacity="0.28"/>
      <circle cx="184" cy="333" r="8" fill="#E4BE88"/>
      <text x="58" y="370" fill="#FFF" font-family="Inter, Arial" font-size="12" font-weight="800">Grain</text>
      <rect x="124" y="365" width="118" height="5" rx="3" fill="#FFF" opacity="0.28"/>
      <circle cx="162" cy="367" r="8" fill="#58BBA8"/>
      <text x="58" y="400" fill="#AFC2C8" font-family="Inter, Arial" font-size="11">Natural  Vivid  Film  Mono</text>
    </g>
    <text x="42" y="468" fill="#AAB9BE" font-family="Inter, Arial" font-size="12">Doc</text>
    <text x="92" y="468" fill="#FFF" font-family="Inter, Arial" font-size="13" font-weight="800">Photo</text>
    <text x="154" y="468" fill="#AAB9BE" font-family="Inter, Arial" font-size="12">Human</text>
    <text x="226" y="468" fill="#AAB9BE" font-family="Inter, Arial" font-size="12">Video</text>
    <rect x="91" y="477" width="42" height="3" rx="2" fill="#E4BE88"/>
    <rect x="30" y="505" width="44" height="44" rx="14" fill="#CED8CC" opacity="0.7"/>
    <circle cx="160" cy="527" r="34" fill="#FFF"/>
    <circle cx="160" cy="527" r="25" fill="none" stroke="#11181C" stroke-width="3"/>
    <circle cx="272" cy="527" r="22" fill="#FFF" opacity="0.14"/>
  </g>
</svg>
