<svg xmlns="http://www.w3.org/2000/svg" width="980" height="720" viewBox="0 0 980 720">
  <defs>
    <linearGradient id="previewB" x1="0" y1="0" x2="1" y2="1">
      <stop offset="0" stop-color="#1E2A37"/>
      <stop offset="0.5" stop-color="#485E62"/>
      <stop offset="1" stop-color="#090A0D"/>
    </linearGradient>
    <linearGradient id="bottomB" x1="0" y1="0" x2="0" y2="1">
      <stop offset="0" stop-color="#0A1218" stop-opacity="0.12"/>
      <stop offset="1" stop-color="#05070A" stop-opacity="0.93"/>
    </linearGradient>
    <filter id="shadowB" x="-20%" y="-20%" width="140%" height="140%">
      <feDropShadow dx="0" dy="10" stdDeviation="12" flood-color="#000" flood-opacity="0.36"/>
    </filter>
  </defs>
  <rect width="980" height="720" fill="#101417"/>
  <text x="70" y="54" fill="#F5FAFA" font-family="Inter, Arial" font-size="24" font-weight="800">B. Quick Bubble</text>
  <text x="70" y="82" fill="#AFC2C8" font-family="Inter, Arial" font-size="14">Initial main screen</text>
  <text x="550" y="82" fill="#AFC2C8" font-family="Inter, Arial" font-size="14">Quick tools expanded</text>

  <g transform="translate(70 105)">
    <rect width="320" height="570" rx="34" fill="#05070A"/>
    <rect x="8" y="8" width="304" height="554" rx="28" fill="url(#previewB)"/>
    <path d="M8 374 C72 318 119 342 163 292 C214 235 254 271 312 217 L312 562 L8 562 Z" fill="#071010" opacity="0.6"/>
    <rect x="8" y="420" width="304" height="142" rx="28" fill="url(#bottomB)"/>
    <text x="28" y="48" fill="#FFF" font-family="Inter, Arial" font-size="15" font-weight="800">Photo</text>
    <circle cx="272" cy="43" r="17" fill="#0B151B" opacity="0.75"/>
    <path d="M264 43 h16 M272 35 v16" stroke="#F4FAFA" stroke-width="2" stroke-linecap="round"/>
    <g filter="url(#shadowB)">
      <circle cx="270" cy="276" r="24" fill="#F6F9F9"/>
      <circle cx="270" cy="276" r="11" fill="#15D8C8"/>
    </g>
    <g font-family="Inter, Arial" font-size="12" font-weight="800">
      <rect x="55" y="395" width="210" height="34" rx="17" fill="#071014" opacity="0.58"/>
      <text x="75" y="416" fill="#B9C8CC">0.6</text>
      <text x="122" y="416" fill="#FFF">1x</text>
      <text x="165" y="416" fill="#B9C8CC">2x</text>
      <text x="210" y="416" fill="#B9C8CC">5x</text>
      <rect x="113" y="402" width="35" height="20" rx="10" fill="#16D6C7" opacity="0.28"/>
    </g>
    <text x="42" y="468" fill="#AAB9BE" font-family="Inter, Arial" font-size="12">Doc</text>
    <text x="92" y="468" fill="#FFF" font-family="Inter, Arial" font-size="13" font-weight="800">Photo</text>
    <text x="154" y="468" fill="#AAB9BE" font-family="Inter, Arial" font-size="12">Human</text>
    <text x="226" y="468" fill="#AAB9BE" font-family="Inter, Arial" font-size="12">Video</text>
    <rect x="91" y="477" width="42" height="3" rx="2" fill="#16D6C7"/>
    <rect x="30" y="505" width="44" height="44" rx="14" fill="#CED8CC" opacity="0.7"/>
    <circle cx="160" cy="527" r="34" fill="#FFF"/>
    <circle cx="160" cy="527" r="25" fill="none" stroke="#11181C" stroke-width="3"/>
    <circle cx="272" cy="527" r="22" fill="#FFF" opacity="0.14"/>
  </g>

  <g transform="translate(550 105)">
    <rect width="320" height="570" rx="34" fill="#05070A"/>
    <rect x="8" y="8" width="304" height="554" rx="28" fill="url(#previewB)"/>
    <path d="M8 374 C72 318 119 342 163 292 C214 235 254 271 312 217 L312 562 L8 562 Z" fill="#071010" opacity="0.6"/>
    <rect x="8" y="420" width="304" height="142" rx="28" fill="url(#bottomB)"/>
    <text x="28" y="48" fill="#FFF" font-family="Inter, Arial" font-size="15" font-weight="800">Photo</text>
    <g filter="url(#shadowB)" font-family="Inter, Arial">
      <circle cx="270" cy="170" r="20" fill="#071014" opacity="0.78"/>
      <text x="270" y="175" text-anchor="middle" fill="#FFF" font-size="10" font-weight="800">Flash</text>
      <circle cx="270" cy="222" r="20" fill="#071014" opacity="0.78"/>
      <text x="270" y="227" text-anchor="middle" fill="#FFF" font-size="10" font-weight="800">4:3</text>
      <circle cx="270" cy="274" r="20" fill="#071014" opacity="0.78"/>
      <text x="270" y="279" text-anchor="middle" fill="#FFF" font-size="10" font-weight="800">Tone</text>
      <circle cx="270" cy="326" r="20" fill="#071014" opacity="0.78"/>
      <text x="270" y="331" text-anchor="middle" fill="#FFF" font-size="10" font-weight="800">Timer</text>
      <circle cx="270" cy="378" r="18" fill="#10252A" opacity="0.9"/>
      <text x="270" y="383" text-anchor="middle" fill="#75F2E8" font-size="9" font-weight="800">DEV</text>
      <circle cx="270" cy="442" r="24" fill="#16D6C7"/>
      <path d="M262 442 h16 M270 434 v16" stroke="#051012" stroke-width="2" stroke-linecap="round"/>
    </g>
    <g font-family="Inter, Arial" font-size="12" font-weight="800">
      <rect x="55" y="395" width="166" height="34" rx="17" fill="#071014" opacity="0.58"/>
      <text x="75" y="416" fill="#B9C8CC">0.6</text>
      <text x="122" y="416" fill="#FFF">1x</text>
      <text x="165" y="416" fill="#B9C8CC">2x</text>
    </g>
    <text x="42" y="468" fill="#AAB9BE" font-family="Inter, Arial" font-size="12">Doc</text>
    <text x="92" y="468" fill="#FFF" font-family="Inter, Arial" font-size="13" font-weight="800">Photo</text>
    <text x="154" y="468" fill="#AAB9BE" font-family="Inter, Arial" font-size="12">Human</text>
    <text x="226" y="468" fill="#AAB9BE" font-family="Inter, Arial" font-size="12">Video</text>
    <rect x="91" y="477" width="42" height="3" rx="2" fill="#16D6C7"/>
    <rect x="30" y="505" width="44" height="44" rx="14" fill="#CED8CC" opacity="0.7"/>
    <circle cx="160" cy="527" r="34" fill="#FFF"/>
    <circle cx="272" cy="527" r="22" fill="#FFF" opacity="0.14"/>
  </g>
</svg>
